<svg xmlns="http://www.w3.org/2000/svg" width="125" height="263.188" viewBox="0 0 125 263.188">
  <g id="_468295-03a9f4" data-name="468295-03a9f4" transform="translate(-557.586 552.845)">
    <path id="Union_1" data-name="Union 1" d="M595.12-882.725a7.493,7.493,0,0,1-1.991-1.733,7.169,7.169,0,0,1-.347-6.212c1-2.184,3.352-3.269,7.813-3.609.874-.066,5.328.019,6.068.11,4.374.563,6.6,1.994,7.3,4.7a8.774,8.774,0,0,1-.037,3.289,5.274,5.274,0,0,1-2.109,2.937c-1.716,1.157-4.129,1.7-7.969,1.784q-.51.011-1,.011C599.342-881.446,596.8-881.869,595.12-882.725ZM581.708-896.4a5.684,5.684,0,0,1-4.237-3.64,5.49,5.49,0,0,1-.125-2.445,5.069,5.069,0,0,1,1.125-2.252c.381-.432,4.849-4.346,5.661-4.959a32.173,32.173,0,0,1,14.217-6.063,39.424,39.424,0,0,1,4.03-.436c.156-.011.844-.022,1.531-.028a32.643,32.643,0,0,1,20.122,6.565,13.151,13.151,0,0,1,2.638,2.645,13.2,13.2,0,0,1,1.7,2.386,4.844,4.844,0,0,1,.674,2.848,4.473,4.473,0,0,1-1.643,3.435,6.266,6.266,0,0,1-2.555,1.276,7.152,7.152,0,0,1-2.675.005c-1.388-.338-1.9-.658-4.168-2.634-1.013-.884-2.113-1.794-2.438-2.022A20.144,20.144,0,0,0,606-905.22a25.959,25.959,0,0,0-4.342,0,20.532,20.532,0,0,0-8.3,2.7,24.747,24.747,0,0,0-4.344,3.379c-2.455,2.143-2.8,2.369-4.286,2.745a6.936,6.936,0,0,1-1.5.134A7.192,7.192,0,0,1,581.708-896.4ZM563-909.108a6.18,6.18,0,0,1-2.133-.4,6.066,6.066,0,0,1-1.589-.915,5.759,5.759,0,0,1-1.532-2.6,4.02,4.02,0,0,1-.161-1.478,3.619,3.619,0,0,1,.2-1.484,4.957,4.957,0,0,1,1.07-1.818c.182-.186,1.2-1.021,2.26-1.849a23.872,23.872,0,0,0,1.959-1.645.456.456,0,0,1,.245-.216,5.159,5.159,0,0,0,.8-.587,59.552,59.552,0,0,1,32.5-13.264c1.085-.1,2.247-.185,4.059-.278.945-.05,5.542.024,6.718.111a63.494,63.494,0,0,1,29.6,9.5,38.988,38.988,0,0,1,6.271,4.8,17.831,17.831,0,0,1,2.82,2.708,6.916,6.916,0,0,1,.86,1.892,6.433,6.433,0,0,1-.029,2.684,4.493,4.493,0,0,1-2.785,3.061,6.882,6.882,0,0,1-3.113.637,5.738,5.738,0,0,1-1.575-.136,7.319,7.319,0,0,1-1.9-.755c-.189-.111-1.28-1.026-2.435-2.034a41.162,41.162,0,0,0-7.277-5.361,48.892,48.892,0,0,0-21.812-6.506c-1.511-.1-4.933-.086-6.473.025a47.725,47.725,0,0,0-26.3,9.794c-.462.359-1.938,1.614-3.288,2.8a20.592,20.592,0,0,1-3.037,2.454,7.3,7.3,0,0,1-3.565.866Q563.185-909.1,563-909.108Z" transform="translate(18 382.812)" fill="#4e99ff"/>
    <g id="Ref" transform="translate(557.586 -493.657)">
      <g id="Rectangle_2" data-name="Rectangle 2" transform="translate(22 27)" fill="#4e99ff" stroke="#4e99ff" stroke-width="12">
        <rect width="12" height="28" rx="4" stroke="none"/>
        <rect x="6" y="6" height="16" fill="none"/>
      </g>
      <g id="Rectangle_3" data-name="Rectangle 3" transform="translate(22 88)" fill="#4e99ff" stroke="#4e99ff" stroke-width="12">
        <rect width="12" height="35" rx="4" stroke="none"/>
        <rect x="6" y="6" height="23" fill="none"/>
      </g>
      <line id="Line_1" data-name="Line 1" x2="122" transform="translate(1.5 74.5)" fill="none" stroke="#4e99ff" stroke-width="12"/>
      <g id="Rectangle_1" data-name="Rectangle 1" fill="none" stroke="#4e99ff" stroke-width="12">
        <rect width="125" height="204" rx="19" stroke="none"/>
        <rect x="6" y="6" width="113" height="192" rx="13" fill="none"/>
      </g>
    </g>
  </g>
</svg>
